<mxfile host="app.diagrams.net" modified="2024-05-16T11:34:06.246Z" agent="Mozilla/5.0 (Windows NT 10.0; Win64; x64; rv:126.0) Gecko/20100101 Firefox/126.0" version="24.4.2" etag="NQMUctkvsujM6kQgwUeo" type="github">
  <diagram name="Seite-1" id="LAKEMwU9PvFR6IIZpZZs">
    <mxGraphModel>
      <root>
        <mxCell id="0" />
        <mxCell id="1" parent="0" />
      </root>
    </mxGraphModel>
  </diagram>
</mxfile>
